<svg width="110" height="28" viewBox="0 0 110 28" fill="none" xmlns="http://www.w3.org/2000/svg">
<g clip-path="url(#clip0_11967_3634)">
<path fill-rule="evenodd" clip-rule="evenodd" d="M13.7892 0.460857C12.7714 -0.15362 11.5175 -0.153618 10.4998 0.460857L1.64471 5.80722C0.626958 6.4217 0 7.5573 0 8.78625V19.4555C0 20.6846 0.626959 21.8202 1.64471 22.4346L10.4998 27.781C10.64 27.8657 10.7847 27.9386 10.9326 28V19.7284L7.97434 17.9153C7.90477 17.8825 7.83446 17.8391 7.76507 17.7873L7.74561 17.7752L7.74593 17.7726C7.44224 17.5381 7.15921 17.1428 7.03776 16.748C6.94809 16.4564 6.91686 16.1757 6.99612 15.9598C7.01166 15.9175 7.02847 15.8796 7.04637 15.8458C7.24275 15.4747 7.63132 15.4834 7.98946 15.7499L10.9326 17.5213V14.3808C10.9326 13.6309 11.5139 13.023 12.231 13.023C12.9482 13.023 13.5294 13.6309 13.5294 14.3808V22.6336L17.1639 20.4459C17.522 20.1794 17.9105 20.1708 18.1068 20.5417C18.1248 20.5757 18.1416 20.6136 18.157 20.6559C18.2363 20.8716 18.2052 21.1524 18.1155 21.444C17.9633 21.9386 17.5576 22.4339 17.1754 22.6131L13.5294 24.8454V28C13.6175 27.9573 13.7041 27.9103 13.7892 27.8588L22.6444 22.4346C23.6621 21.8202 24.2891 20.6846 24.2891 19.4555V8.78625C24.2891 7.5573 23.6621 6.4217 22.6444 5.80722L13.7892 0.460857ZM19.9684 20.5364C19.6328 21.1389 19.0631 21.4461 18.6959 21.2225C18.3284 20.999 18.3027 20.3292 18.6383 19.7266C18.9736 19.1239 19.5435 18.8166 19.9108 19.0403C20.2782 19.264 20.3039 19.9337 19.9684 20.5364Z" fill="#902B29"/>
</g>
<g clip-path="url(#clip1_11967_3634)">
<path d="M97.4877 20.9329C96.92 20.9329 96.4567 20.7523 96.0976 20.3909C95.7501 20.0177 95.5764 19.5239 95.5764 18.9096V13.8514H93.4219V11.9727H95.5764V9.19067H97.7656V11.9727H100.129V13.8514H97.7656V18.5122C97.7656 18.8735 97.9278 19.0542 98.2521 19.0542H99.9201V20.9329H97.4877Z" fill="#902B29"/>
<path d="M86.8612 21.0325C86.1893 21.0325 85.5986 20.8759 85.0889 20.5628C84.5909 20.2377 84.2027 19.7921 83.9247 19.226C83.6468 18.66 83.5078 18.0096 83.5078 17.275V11.9277H85.697V17.0943C85.697 17.7687 85.8534 18.2746 86.1661 18.6118C86.4905 18.949 86.948 19.1176 87.5388 19.1176C88.2106 19.1176 88.7319 18.8888 89.1025 18.4311C89.4732 17.9614 89.6585 17.3111 89.6585 16.4801V11.9277H91.8478V20.8879H89.6933V19.7137H89.3805C89.2415 20.0149 88.9809 20.3099 88.5986 20.5989C88.2164 20.8879 87.6372 21.0325 86.8612 21.0325Z" fill="#902B29"/>
<path d="M71.5352 20.8877L74.7322 8.24219H78.7284L81.9254 20.8877H79.5624L78.9022 18.1057H74.5584L73.8982 20.8877H71.5352ZM75.097 15.9017H78.3636L76.8867 9.74158H76.5739L75.097 15.9017Z" fill="#902B29"/>
<path d="M61.4354 21.1407C60.5782 21.1407 59.808 20.96 59.1246 20.5986C58.4411 20.2374 57.9025 19.7135 57.5087 19.027C57.1149 18.3405 56.918 17.5156 56.918 16.5521V16.2631C56.918 15.2996 57.1149 14.4746 57.5087 13.7882C57.9025 13.1017 58.4411 12.5778 59.1246 12.2165C59.808 11.8552 60.5782 11.6746 61.4354 11.6746C62.2926 11.6746 63.0629 11.8552 63.7463 12.2165C64.4297 12.5778 64.9683 13.1017 65.3622 13.7882C65.756 14.4746 65.9529 15.2996 65.9529 16.2631V16.5521C65.9529 17.5156 65.756 18.3405 65.3622 19.027C64.9683 19.7135 64.4297 20.2374 63.7463 20.5986C63.0629 20.96 62.2926 21.1407 61.4354 21.1407ZM61.4354 19.1173C62.1072 19.1173 62.6632 18.8945 63.1035 18.4489C63.5436 17.9913 63.7637 17.3409 63.7637 16.4979V16.3173C63.7637 15.4742 63.5436 14.8299 63.1035 14.3843C62.6748 13.9267 62.1188 13.6978 61.4354 13.6978C60.7635 13.6978 60.2076 13.9267 59.7674 14.3843C59.3273 14.8299 59.1072 15.4742 59.1072 16.3173V16.4979C59.1072 17.3409 59.3273 17.9913 59.7674 18.4489C60.2076 18.8945 60.7635 19.1173 61.4354 19.1173Z" fill="#902B29"/>
<path d="M49.7491 20.8879L47.0039 11.9277H49.3322L51.3303 19.226H51.643L53.6411 11.9277H55.9694L53.2242 20.8879H49.7491Z" fill="#902B29"/>
<path d="M40.9258 20.8878V11.9275H43.0803V12.9391H43.3931C43.5205 12.5778 43.729 12.3129 44.0185 12.1443C44.3197 11.9757 44.6673 11.8914 45.0611 11.8914H46.1035V13.9146H45.0263C44.4703 13.9146 44.0127 14.0712 43.6537 14.3843C43.2946 14.6854 43.1151 15.1551 43.1151 15.7934V20.8878H40.9258Z" fill="#902B29"/>
<path d="M28.8828 20.8877L32.0798 8.24219H36.076L39.273 20.8877H36.91L36.2498 18.1057H31.9061L31.2458 20.8877H28.8828ZM32.4447 15.9017H35.7112L34.2343 9.74158H33.9215L32.4447 15.9017Z" fill="#902B29"/>
<path d="M101.68 20.9046V8.28979H103.864V13.0654H104.176C104.268 12.8732 104.412 12.6809 104.609 12.4887C104.805 12.2965 105.065 12.1403 105.389 12.0202C105.724 11.888 106.146 11.8219 106.654 11.8219C107.324 11.8219 107.908 11.9841 108.405 12.3085C108.913 12.6209 109.306 13.0594 109.583 13.624C109.861 14.1767 109.999 14.8255 109.999 15.5703V20.9046H107.815V15.7505C107.815 15.0777 107.654 14.5732 107.33 14.2368C107.018 13.9004 106.568 13.7322 105.978 13.7322C105.308 13.7322 104.788 13.9664 104.418 14.435C104.049 14.8915 103.864 15.5343 103.864 16.3632V20.9046H101.68Z" fill="#902B29"/>
</g>
<defs>
<clipPath id="clip0_11967_3634">
<rect width="24.2891" height="28" fill="white"/>
</clipPath>
<clipPath id="clip1_11967_3634">
<rect width="81.1172" height="12.8984" fill="white" transform="translate(28.8828 8.24219)"/>
</clipPath>
</defs>
</svg>
